<?xml version="1.0" encoding="UTF-8"?>
<!DOCTYPE svg PUBLIC "-//W3C//DTD SVG 1.0//EN" "http://www.w3.org/TR/2001/REC-SVG-20010904/DTD/svg10.dtd">
<!-- Creator: CorelDRAW X8 -->
<svg xmlns="http://www.w3.org/2000/svg" xml:space="preserve" width="5.3338mm" height="5.3338mm" version="1.0" style="shape-rendering:geometricPrecision; text-rendering:geometricPrecision; image-rendering:optimizeQuality; fill-rule:evenodd; clip-rule:evenodd"
viewBox="0 0 533 533"
 xmlns:xlink="http://www.w3.org/1999/xlink">
 <defs>
  <style type="text/css">
   <![CDATA[
    .fil0 {fill:white}
   ]]>
  </style>
 </defs>
 <g id="Camada_x0020_1">
  <metadata id="CorelCorpID_0Corel-Layer"/>
  <g id="_1612722895536">
   <path class="fil0" d="M523 480c-6,0 -11,5 -11,11l0 21 -490 0 0 -73 501 0c6,0 10,-5 10,-11 0,-6 -4,-10 -10,-10l-512 0c-6,0 -11,4 -11,10l0 95c0,6 5,10 11,10l512 0c6,0 10,-4 10,-10l0 -32c0,-6 -4,-11 -10,-11z"/>
   <path class="fil0" d="M259 368c2,2 5,3 8,3 3,0 5,-1 7,-3l139 -138c4,-4 4,-11 0,-15 -5,-5 -12,-5 -16,0l-130 130 -131 -130c-4,-5 -11,-5 -15,0 -4,4 -4,11 0,15l138 138z"/>
   <path class="fil0" d="M267 310c6,0 11,-5 11,-11l0 -288c0,-6 -5,-11 -11,-11 -6,0 -11,5 -11,11l0 288c0,6 5,11 11,11z"/>
  </g>
 </g>
</svg>
