<?xml version="1.0" encoding="UTF-8"?>
<!DOCTYPE svg PUBLIC "-//W3C//DTD SVG 1.0//EN" "http://www.w3.org/TR/2001/REC-SVG-20010904/DTD/svg10.dtd">
<!-- Creator: CorelDRAW X8 -->
<svg xmlns="http://www.w3.org/2000/svg" xml:space="preserve" width="4.2332mm" height="4.2332mm" version="1.0" style="shape-rendering:geometricPrecision; text-rendering:geometricPrecision; image-rendering:optimizeQuality; fill-rule:evenodd; clip-rule:evenodd"
viewBox="0 0 423 423"
 xmlns:xlink="http://www.w3.org/1999/xlink">
 <defs>
  <style type="text/css">
   <![CDATA[
    .fil0 {fill:white}
   ]]>
  </style>
 </defs>
 <g id="Camada_x0020_1">
  <metadata id="CorelCorpID_0Corel-Layer"/>
  <g id="_1612726249280">
   <path class="fil0" d="M411 141c-19,-54 -58,-96 -109,-120 -51,-25 -108,-28 -161,-9 -54,19 -96,58 -120,109 -25,51 -28,109 -9,162 2,4 7,7 11,5 5,-2 7,-7 6,-11 -18,-49 -15,-102 7,-149 22,-47 61,-82 110,-99 49,-18 102,-15 149,7 47,22 82,62 100,110 17,49 15,102 -8,149 -22,47 -61,82 -110,100 -55,19 -115,13 -165,-16 -4,-3 -9,-2 -12,3 -2,4 -1,9 3,11 33,20 71,30 109,30 23,0 48,-4 71,-12 53,-19 96,-58 120,-109 24,-51 27,-108 8,-161z"/>
   <path class="fil0" d="M306 212c0,-5 -3,-9 -8,-9l-215 0c-4,0 -8,4 -8,9 0,4 4,8 8,8l215 0c5,0 8,-4 8,-8z"/>
   <path class="fil0" d="M238 302c-4,3 -4,9 0,12 1,2 4,2 6,2 2,0 4,0 6,-2l96 -96c3,-4 3,-9 0,-12l-96 -97c-3,-3 -9,-3 -12,0 -4,4 -4,9 0,13l90 90 -90 90z"/>
  </g>
  <g id="_1612726248608">
  </g>
  <g id="_1612726246912">
  </g>
  <g id="_1612726246368">
  </g>
  <g id="_1612726247360">
  </g>
  <g id="_1612726246560">
  </g>
  <g id="_1612726244992">
  </g>
  <g id="_1612726244704">
  </g>
  <g id="_1612726245664">
  </g>
  <g id="_1612726245472">
  </g>
  <g id="_1612726244544">
  </g>
  <g id="_1612726243808">
  </g>
  <g id="_1612726245312">
  </g>
  <g id="_1612726245024">
  </g>
  <g id="_1612726241920">
  </g>
  <g id="_1612726242432">
  </g>
 </g>
</svg>
