<?xml version="1.0" encoding="UTF-8"?>
<!DOCTYPE svg PUBLIC "-//W3C//DTD SVG 1.0//EN" "http://www.w3.org/TR/2001/REC-SVG-20010904/DTD/svg10.dtd">
<!-- Creator: CorelDRAW X8 -->
<svg xmlns="http://www.w3.org/2000/svg" xml:space="preserve" width="7.4506mm" height="7.4506mm" version="1.0" style="shape-rendering:geometricPrecision; text-rendering:geometricPrecision; image-rendering:optimizeQuality; fill-rule:evenodd; clip-rule:evenodd"
viewBox="0 0 745 745"
 xmlns:xlink="http://www.w3.org/1999/xlink">
 <defs>
  <style type="text/css">
   <![CDATA[
    .fil0 {fill:#FEFEFE}
   ]]>
  </style>
 </defs>
 <g id="Camada_x0020_1">
  <metadata id="CorelCorpID_0Corel-Layer"/>
  <path class="fil0" d="M704 202c-26,-51 -64,-95 -110,-129 -7,-5 -16,-4 -21,3 -5,7 -4,16 3,21 42,31 77,72 101,119 25,49 38,101 38,157 0,188 -154,342 -342,342 -189,0 -343,-154 -343,-342 0,-189 154,-343 343,-343 8,0 15,-6 15,-15 0,-8 -7,-15 -15,-15 -206,0 -373,167 -373,373 0,205 167,372 373,372 205,0 372,-167 372,-372 0,-60 -14,-119 -41,-171z"/>
  <path class="fil0" d="M231 193c-5,3 -8,8 -8,13l0 333c0,8 7,15 15,15 9,0 15,-7 15,-15l0 -306 225 133 -165 107c-7,4 -9,14 -5,21 5,7 14,9 21,4l186 -119c4,-3 7,-8 7,-13 0,-6 -3,-10 -8,-13l-268 -160c-5,-3 -10,-3 -15,0z"/>
 </g>
</svg>
