<?xml version="1.0" encoding="UTF-8"?>
<!DOCTYPE svg PUBLIC "-//W3C//DTD SVG 1.0//EN" "http://www.w3.org/TR/2001/REC-SVG-20010904/DTD/svg10.dtd">
<!-- Creator: CorelDRAW X8 -->
<svg xmlns="http://www.w3.org/2000/svg" xml:space="preserve" width="4.2332mm" height="4.2332mm" version="1.0" style="shape-rendering:geometricPrecision; text-rendering:geometricPrecision; image-rendering:optimizeQuality; fill-rule:evenodd; clip-rule:evenodd"
viewBox="0 0 423 423"
 xmlns:xlink="http://www.w3.org/1999/xlink">
 <defs>
  <style type="text/css">
   <![CDATA[
    .fil0 {fill:white}
   ]]>
  </style>
 </defs>
 <g id="Camada_x0020_1">
  <metadata id="CorelCorpID_0Corel-Layer"/>
  <path class="fil0" d="M12 141c19,-54 58,-96 109,-120 51,-25 108,-28 162,-9 53,19 96,58 120,109 24,51 27,109 8,162 -2,4 -7,7 -11,5 -5,-2 -7,-7 -5,-11 17,-49 15,-102 -8,-149 -22,-47 -61,-82 -110,-99 -49,-18 -102,-15 -149,7 -47,22 -82,62 -99,110 -18,49 -15,102 7,149 22,47 61,82 110,100 55,19 115,13 165,-16 4,-3 10,-2 12,3 3,4 1,9 -3,11 -33,20 -71,30 -108,30 -24,0 -48,-4 -71,-12 -54,-19 -96,-58 -120,-109 -25,-51 -28,-108 -9,-161z"/>
  <path class="fil0" d="M117 212c0,-5 4,-9 9,-9l214 0c5,0 9,4 9,9 0,4 -4,8 -9,8l-214 0c-5,0 -9,-4 -9,-8z"/>
  <path class="fil0" d="M186 302c3,3 3,9 0,12 -2,2 -4,2 -7,2 -2,0 -4,0 -6,-2l-96 -96c-3,-4 -3,-9 0,-12l96 -97c4,-3 9,-3 13,0 3,4 3,9 0,13l-91 90 91 90z"/>
 </g>
</svg>
